REM DIRINDEX 1\2,1\4,1\5,1\6,1\7,1\3\8,1\3\9,1\3\10
REM DIRNAME cjc113,folder01,folder02,folder03,folder04,folder05,folder06,folder07,folder08,folder09
TITLE ""
FILE "DB4500_5th_4B_37.mp3" MP3
  TRACK 01 AUDIO
    TITLE "0:"
    INDEX 01 00:00:00
  TRACK 02 AUDIO
    TITLE "8:cjc113_3152"
    INDEX 01 00:00:01
  TRACK 03 AUDIO
    TITLE "0:"
    INDEX 01 00:01:13
  TRACK 04 AUDIO
    TITLE "9:cjc113_3153"
    INDEX 01 00:01:36
  TRACK 05 AUDIO
    TITLE "0:"
    INDEX 01 00:02:59
  TRACK 06 AUDIO
    TITLE "10:cjc113_3154"
    INDEX 01 00:03:06
  TRACK 07 AUDIO
    TITLE "0:"
    INDEX 01 00:06:61
  TRACK 08 AUDIO
    TITLE "8:cjc113_3155"
    INDEX 01 00:07:33
  TRACK 09 AUDIO
    TITLE "0:"
    INDEX 01 00:08:68
  TRACK 10 AUDIO
    TITLE "9:cjc113_3156"
    INDEX 01 00:09:16
  TRACK 11 AUDIO
    TITLE "0:"
    INDEX 01 00:10:68
  TRACK 12 AUDIO
    TITLE "10:cjc113_3157"
    INDEX 01 00:11:13
  TRACK 13 AUDIO
    TITLE "0:"
    INDEX 01 00:13:67
  TRACK 14 AUDIO
    TITLE "8:cjc113_3158"
    INDEX 01 00:14:37
  TRACK 15 AUDIO
    TITLE "0:"
    INDEX 01 00:15:56
  TRACK 16 AUDIO
    TITLE "9:cjc113_3159"
    INDEX 01 00:16:00
  TRACK 17 AUDIO
    TITLE "0:"
    INDEX 01 00:17:53
  TRACK 18 AUDIO
    TITLE "10:cjc113_3160"
    INDEX 01 00:18:01
  TRACK 19 AUDIO
    TITLE "0:"
    INDEX 01 00:21:31
  TRACK 20 AUDIO
    TITLE "8:cjc113_3161"
    INDEX 01 00:22:03
  TRACK 21 AUDIO
    TITLE "0:"
    INDEX 01 00:23:16
  TRACK 22 AUDIO
    TITLE "9:cjc113_3162"
    INDEX 01 00:23:42
  TRACK 23 AUDIO
    TITLE "0:"
    INDEX 01 00:24:74
  TRACK 24 AUDIO
    TITLE "10:cjc113_3163"
    INDEX 01 00:25:17
  TRACK 25 AUDIO
    TITLE "0:"
    INDEX 01 00:27:73
  TRACK 26 AUDIO
    TITLE "8:cjc113_3164"
    INDEX 01 00:28:47
  TRACK 27 AUDIO
    TITLE "0:"
    INDEX 01 00:30:01
  TRACK 28 AUDIO
    TITLE "9:cjc113_3165"
    INDEX 01 00:30:20
  TRACK 29 AUDIO
    TITLE "0:"
    INDEX 01 00:31:47
  TRACK 30 AUDIO
    TITLE "10:cjc113_3166"
    INDEX 01 00:31:67
  TRACK 31 AUDIO
    TITLE "0:"
    INDEX 01 00:35:55
  TRACK 32 AUDIO
    TITLE "8:cjc113_3167"
    INDEX 01 00:36:29
  TRACK 33 AUDIO
    TITLE "0:"
    INDEX 01 00:37:40
  TRACK 34 AUDIO
    TITLE "9:cjc113_3168"
    INDEX 01 00:37:63
  TRACK 35 AUDIO
    TITLE "0:"
    INDEX 01 00:38:73
  TRACK 36 AUDIO
    TITLE "10:cjc113_3169"
    INDEX 01 00:39:21
  TRACK 37 AUDIO
    TITLE "0:"
    INDEX 01 00:43:19
  TRACK 38 AUDIO
    TITLE "8:cjc113_3170"
    INDEX 01 00:43:68
  TRACK 39 AUDIO
    TITLE "0:"
    INDEX 01 00:45:04
  TRACK 40 AUDIO
    TITLE "9:cjc113_3171"
    INDEX 01 00:45:26
  TRACK 41 AUDIO
    TITLE "0:"
    INDEX 01 00:46:37
  TRACK 42 AUDIO
    TITLE "10:cjc113_3172"
    INDEX 01 00:46:60
  TRACK 43 AUDIO
    TITLE "0:"
    INDEX 01 00:50:31
  TRACK 44 AUDIO
    TITLE "8:cjc113_3173"
    INDEX 01 00:51:05
  TRACK 45 AUDIO
    TITLE "0:"
    INDEX 01 00:52:20
  TRACK 46 AUDIO
    TITLE "9:cjc113_3174"
    INDEX 01 00:52:43
  TRACK 47 AUDIO
    TITLE "0:"
    INDEX 01 00:53:70
  TRACK 48 AUDIO
    TITLE "10:cjc113_3175"
    INDEX 01 00:54:19
  TRACK 49 AUDIO
    TITLE "0:"
    INDEX 01 00:57:64
  TRACK 50 AUDIO
    TITLE "8:cjc113_3176"
    INDEX 01 00:58:38
  TRACK 51 AUDIO
    TITLE "0:"
    INDEX 01 00:59:55
  TRACK 52 AUDIO
    TITLE "9:cjc113_3177"
    INDEX 01 01:00:04
  TRACK 53 AUDIO
    TITLE "0:"
    INDEX 01 01:01:25
  TRACK 54 AUDIO
    TITLE "10:cjc113_3178"
    INDEX 01 01:01:48
  TRACK 55 AUDIO
    TITLE "0:"
    INDEX 01 01:05:05
  TRACK 56 AUDIO
    TITLE "8:cjc113_3179"
    INDEX 01 01:05:52
  TRACK 57 AUDIO
    TITLE "0:"
    INDEX 01 01:07:04
  TRACK 58 AUDIO
    TITLE "9:cjc113_3180"
    INDEX 01 01:07:29
  TRACK 59 AUDIO
    TITLE "0:"
    INDEX 01 01:08:46
  TRACK 60 AUDIO
    TITLE "10:cjc113_3181"
    INDEX 01 01:08:70
  TRACK 61 AUDIO
    TITLE "0:"
    INDEX 01 01:12:19
  TRACK 62 AUDIO
    TITLE "8:cjc113_3182"
    INDEX 01 01:12:66
  TRACK 63 AUDIO
    TITLE "0:"
    INDEX 01 01:14:10
  TRACK 64 AUDIO
    TITLE "9:cjc113_3183"
    INDEX 01 01:14:31
  TRACK 65 AUDIO
    TITLE "0:"
    INDEX 01 01:15:70
  TRACK 66 AUDIO
    TITLE "10:cjc113_3184"
    INDEX 01 01:16:16
  TRACK 67 AUDIO
    TITLE "0:"
    INDEX 01 01:19:34
  TRACK 68 AUDIO
    TITLE "8:cjc113_3185"
    INDEX 01 01:20:08
  TRACK 69 AUDIO
    TITLE "0:"
    INDEX 01 01:21:37
  TRACK 70 AUDIO
    TITLE "9:cjc113_3186"
    INDEX 01 01:21:59
  TRACK 71 AUDIO
    TITLE "0:"
    INDEX 01 01:23:16
  TRACK 72 AUDIO
    TITLE "10:cjc113_3187"
    INDEX 01 01:23:38
  TRACK 73 AUDIO
    TITLE "0:"
    INDEX 01 01:26:34
  TRACK 74 AUDIO
    TITLE "8:cjc113_3188"
    INDEX 01 01:27:08
  TRACK 75 AUDIO
    TITLE "0:"
    INDEX 01 01:28:29
  TRACK 76 AUDIO
    TITLE "9:cjc113_3189"
    INDEX 01 01:28:51
  TRACK 77 AUDIO
    TITLE "0:"
    INDEX 01 01:30:07
  TRACK 78 AUDIO
    TITLE "10:cjc113_3190"
    INDEX 01 01:30:30
  TRACK 79 AUDIO
    TITLE "0:"
    INDEX 01 01:33:62
